<mxfile host="www.draw.io" modified="2020-02-20T02:52:47.867Z" agent="Mozilla/5.0 (Windows NT 10.0; WOW64) AppleWebKit/537.36 (KHTML, like Gecko) Chrome/70.0.3538.25 Safari/537.36 Core/1.70.3741.400 QQBrowser/10.5.3863.400" etag="8NSwPjKgi-ZRaOHgXAQ4" version="12.7.2" type="github">
  <diagram id="5BoRt0dJUZoAXOTLknnA" name="第 1 页">
    <mxGraphModel dx="728" dy="556" grid="1" gridSize="10" guides="1" tooltips="1" connect="1" arrows="1" fold="1" page="1" pageScale="1" pageWidth="2339" pageHeight="3300" math="0" shadow="0">
      <root>
        <mxCell id="0" />
        <mxCell id="1" parent="0" />
        <mxCell id="3Bc0g7q2PkA_gzHsREux-6" value="" style="edgeStyle=orthogonalEdgeStyle;rounded=0;orthogonalLoop=1;jettySize=auto;html=1;" parent="1" source="3Bc0g7q2PkA_gzHsREux-1" target="3Bc0g7q2PkA_gzHsREux-5" edge="1">
          <mxGeometry relative="1" as="geometry" />
        </mxCell>
        <mxCell id="3Bc0g7q2PkA_gzHsREux-10" value="" style="edgeStyle=orthogonalEdgeStyle;rounded=0;orthogonalLoop=1;jettySize=auto;html=1;" parent="1" source="3Bc0g7q2PkA_gzHsREux-1" target="3Bc0g7q2PkA_gzHsREux-9" edge="1">
          <mxGeometry relative="1" as="geometry" />
        </mxCell>
        <mxCell id="3Bc0g7q2PkA_gzHsREux-1" value="data.js&lt;br&gt;" style="rounded=0;whiteSpace=wrap;html=1;" parent="1" vertex="1">
          <mxGeometry x="250" y="20" width="120" height="60" as="geometry" />
        </mxCell>
        <mxCell id="3Bc0g7q2PkA_gzHsREux-9" value="数据库(并不是真的)" style="rounded=0;whiteSpace=wrap;html=1;" parent="1" vertex="1">
          <mxGeometry x="510" y="20" width="120" height="60" as="geometry" />
        </mxCell>
        <mxCell id="3Bc0g7q2PkA_gzHsREux-8" value="" style="edgeStyle=orthogonalEdgeStyle;rounded=0;orthogonalLoop=1;jettySize=auto;html=1;" parent="1" source="3Bc0g7q2PkA_gzHsREux-2" target="3Bc0g7q2PkA_gzHsREux-3" edge="1">
          <mxGeometry relative="1" as="geometry" />
        </mxCell>
        <mxCell id="3Bc0g7q2PkA_gzHsREux-14" value="" style="edgeStyle=orthogonalEdgeStyle;rounded=0;orthogonalLoop=1;jettySize=auto;html=1;" parent="1" source="3Bc0g7q2PkA_gzHsREux-2" target="3Bc0g7q2PkA_gzHsREux-13" edge="1">
          <mxGeometry relative="1" as="geometry" />
        </mxCell>
        <mxCell id="3Bc0g7q2PkA_gzHsREux-2" value="DBPost.js" style="rounded=0;whiteSpace=wrap;html=1;" parent="1" vertex="1">
          <mxGeometry x="250" y="210" width="120" height="60" as="geometry" />
        </mxCell>
        <mxCell id="sz4-TvfxraSDYtr3C2Cc-2" value="" style="edgeStyle=orthogonalEdgeStyle;rounded=0;orthogonalLoop=1;jettySize=auto;html=1;" parent="1" source="3Bc0g7q2PkA_gzHsREux-13" target="sz4-TvfxraSDYtr3C2Cc-1" edge="1">
          <mxGeometry relative="1" as="geometry" />
        </mxCell>
        <mxCell id="3Bc0g7q2PkA_gzHsREux-13" value="操作数据库。把数据输出到页面逻辑" style="rounded=0;whiteSpace=wrap;html=1;" parent="1" vertex="1">
          <mxGeometry x="510" y="210" width="120" height="60" as="geometry" />
        </mxCell>
        <mxCell id="sz4-TvfxraSDYtr3C2Cc-1" value="获取全部数据" style="rounded=0;whiteSpace=wrap;html=1;" parent="1" vertex="1">
          <mxGeometry x="710" y="210" width="120" height="60" as="geometry" />
        </mxCell>
        <mxCell id="3Bc0g7q2PkA_gzHsREux-16" value="" style="edgeStyle=orthogonalEdgeStyle;rounded=0;orthogonalLoop=1;jettySize=auto;html=1;" parent="1" source="3Bc0g7q2PkA_gzHsREux-3" target="3Bc0g7q2PkA_gzHsREux-15" edge="1">
          <mxGeometry relative="1" as="geometry" />
        </mxCell>
        <mxCell id="3Bc0g7q2PkA_gzHsREux-3" value="post.js" style="rounded=0;whiteSpace=wrap;html=1;" parent="1" vertex="1">
          <mxGeometry x="250" y="310" width="120" height="60" as="geometry" />
        </mxCell>
        <mxCell id="3Bc0g7q2PkA_gzHsREux-15" value="输入操作数据的方法，把数据表现在页面上" style="rounded=0;whiteSpace=wrap;html=1;" parent="1" vertex="1">
          <mxGeometry x="510" y="310" width="120" height="60" as="geometry" />
        </mxCell>
        <mxCell id="3Bc0g7q2PkA_gzHsREux-7" value="" style="edgeStyle=orthogonalEdgeStyle;rounded=0;orthogonalLoop=1;jettySize=auto;html=1;" parent="1" source="3Bc0g7q2PkA_gzHsREux-5" target="3Bc0g7q2PkA_gzHsREux-2" edge="1">
          <mxGeometry relative="1" as="geometry" />
        </mxCell>
        <mxCell id="3Bc0g7q2PkA_gzHsREux-12" value="" style="edgeStyle=orthogonalEdgeStyle;rounded=0;orthogonalLoop=1;jettySize=auto;html=1;" parent="1" source="3Bc0g7q2PkA_gzHsREux-5" target="3Bc0g7q2PkA_gzHsREux-11" edge="1">
          <mxGeometry relative="1" as="geometry" />
        </mxCell>
        <mxCell id="3Bc0g7q2PkA_gzHsREux-5" value="app.js&lt;br&gt;wx.setStorageSync(key,data)&lt;br&gt;" style="rounded=0;whiteSpace=wrap;html=1;" parent="1" vertex="1">
          <mxGeometry x="220" y="120" width="180" height="60" as="geometry" />
        </mxCell>
        <mxCell id="3Bc0g7q2PkA_gzHsREux-11" value="把数据库设置缓存数据库" style="rounded=0;whiteSpace=wrap;html=1;" parent="1" vertex="1">
          <mxGeometry x="480" y="120" width="180" height="60" as="geometry" />
        </mxCell>
      </root>
    </mxGraphModel>
  </diagram>
</mxfile>
